<?xml version="1.0" encoding="UTF-8"?>
<svg width="24px" height="29px" viewBox="0 0 24 29" version="1.1" xmlns="http://www.w3.org/2000/svg" xmlns:xlink="http://www.w3.org/1999/xlink">
    <!-- Generator: Sketch 43.2 (39069) - http://www.bohemiancoding.com/sketch -->
    <title>touch</title>
    <desc>Created with Sketch.</desc>
    <defs></defs>
    <g id="Page-1" stroke="none" stroke-width="1" fill="none" fill-rule="evenodd">
        <g id="touch">
            <path d="M12.1244203,7.32866727 C12.7498203,6.55580421 13.1244203,5.57164839 13.1244203,4.5 C13.1244203,2.0147185 11.1097018,0 8.6244203,0 C6.1391388,0 4.12442034,2.0147185 4.12442034,4.5 C4.12442034,5.57164839 4.49902039,6.55580421 5.1244203,7.32866727 L5.1244203,4.49129639 C5.1244203,2.56125662 6.6914237,1 8.6244203,1 C10.5534837,1 12.1244203,2.56310664 12.1244203,4.49129639 L12.1244203,7.32866727 L12.1244203,7.32866727 L12.1244203,7.32866727 Z" id="one-finger-tap-path" fill="#000000"></path>
            <path d="M23.1244203,20.5 C23.1244203,25.1944206 19.3188409,29 14.6244203,29.0000003 C11.5115051,29.0000003 8.2262274,27.5474856 5.9652407,23.4282229 C2.70175208,17.4825159 -1.47172681,13.5832077 0.51553361,11.5959473 C1.9371827,10.1742982 4.16926196,11.5381668 6.1244203,13.3667868 L6.1244203,13.3667868 L6.1244203,4.50840855 C6.1244203,3.11541748 7.2437085,2 8.6244203,2 C10.0147583,2 11.1244203,3.12305276 11.1244203,4.50840855 L11.1244203,9.4983653 C11.5422506,9.1853054 12.0616174,9 12.6244203,9 C13.7069384,9 14.6193054,9.6774672 14.9702378,10.6281239 C15.4110134,10.2379894 15.9901312,10 16.6244203,10 C18.0147583,10 19.1244203,11.1182256 19.1244203,12.4976267 L19.1244203,12.5110883 C19.5422506,12.1985158 20.0616174,12.014191 20.6244203,12.014191 C22.0147583,12.014191 23.1244203,13.1335355 23.1244203,14.5143168 L23.1244203,20.5 L23.1244203,20.5 Z" id="one-finger-tap-path" fill="#000000"></path>
            <path d="M14.6231595,27.9999999 C18.7659915,28 22.1244203,24.4147752 22.1244203,20.5 C22.1244203,20.5 22.1244203,22.8132437 22.1244203,20.5 L22.1244203,16.7491622 L22.1244203,14.5016756 C22.1244203,13.6723231 21.4586231,13 20.6244203,13 C19.7959932,13 19.1244203,13.6711894 19.1244203,14.5016756 L19.1244203,15 L18.1244203,15 L18.1244203,12.5064385 C18.1244203,11.6744555 17.4586231,11 16.6244203,11 C15.7959932,11 15.1244203,11.6715406 15.1244203,12.5064385 L15.1244203,14 L14.1244203,14 L14.1244203,11.5064385 C14.1244203,10.6744555 13.4586231,10 12.6244203,10 C11.7959932,10 11.1244203,10.6715406 11.1244203,11.5064385 L11.1244203,15 L10.1244203,15 L10.1244203,4.50524116 C10.1244203,3.67391942 9.4586231,3 8.6244203,3 C7.7959932,3 7.1244203,3.66712976 7.1244203,4.50524116 L7.1244203,15.7999878 C5.0660207,13.599567 2.35605012,11.1791206 1.24545305,12.2957153 C0.15828327,13.3887562 2.95978233,16.4007216 6.8717958,22.9830936 C8.6344162,25.9488875 10.8647052,27.9995418 14.6231595,27.9999999 L14.6231595,27.9999999 Z" id="one-finger-tap-path" fill="#FFFFFF"></path>
        </g>
    </g>
</svg>